<svg xmlns="http://www.w3.org/2000/svg" viewBox="0 0 1200 675">
<defs>
  <radialGradient id="bg" cx="50%" cy="70%" r="65%">
    <stop offset="0%" stop-color="#2b1d13"/>
    <stop offset="55%" stop-color="#161210"/>
    <stop offset="100%" stop-color="#0d0b09"/>
  </radialGradient>
  <marker id="arrowW" markerWidth="8" markerHeight="8" refX="6" refY="3" orient="auto">
    <path d="M0,0 L0,6 L8,3 z" fill="#f0e6d3" opacity="0.15"/>
  </marker>
  <marker id="arrowO" markerWidth="8" markerHeight="8" refX="6" refY="3" orient="auto">
    <path d="M0,0 L0,6 L8,3 z" fill="#e8734a" opacity="0.6"/>
  </marker>
</defs>

<!-- Background -->
<rect width="1200" height="675" fill="url(#bg)"/>

<!-- Faint "427%" watermark -->
<text x="600" y="400" font-family="Georgia,'Times New Roman',serif" font-size="280" fill="#e8734a" opacity="0.03" text-anchor="middle" font-weight="bold">427%</text>

<!-- ── SECTION LABEL: BEFORE ── -->
<text x="60" y="68" font-family="Courier New,monospace" font-size="10" fill="#f0e6d3" opacity="0.25" letter-spacing="4">BEFORE</text>
<line x1="60" y1="74" x2="490" y2="74" stroke="#f0e6d3" stroke-width="0.5" opacity="0.1"/>

<!-- ── FRAGMENTED FLOW (Before) ── -->
<!-- Messy crossing connector lines between all 5 nodes -->
<!-- CS Portal → Email -->
<line x1="166" y1="176" x2="314" y2="162" stroke="#f0e6d3" stroke-width="0.75" opacity="0.12" stroke-dasharray="4,3" marker-end="url(#arrowW)"/>
<!-- CS Portal → Warehouse -->
<line x1="180" y1="196" x2="348" y2="328" stroke="#f0e6d3" stroke-width="0.75" opacity="0.12" stroke-dasharray="4,3" marker-end="url(#arrowW)"/>
<!-- Email → Phone -->
<line x1="322" y1="188" x2="202" y2="318" stroke="#f0e6d3" stroke-width="0.75" opacity="0.12" stroke-dasharray="4,3" marker-end="url(#arrowW)"/>
<!-- Email → Finance -->
<line x1="316" y1="192" x2="264" y2="408" stroke="#f0e6d3" stroke-width="0.75" opacity="0.12" stroke-dasharray="4,3" marker-end="url(#arrowW)"/>
<!-- Phone → Finance -->
<line x1="196" y1="354" x2="244" y2="406" stroke="#f0e6d3" stroke-width="0.75" opacity="0.12" stroke-dasharray="4,3" marker-end="url(#arrowW)"/>
<!-- Phone → Warehouse -->
<line x1="220" y1="340" x2="344" y2="338" stroke="#f0e6d3" stroke-width="0.75" opacity="0.12" stroke-dasharray="4,3" marker-end="url(#arrowW)"/>
<!-- Warehouse → Finance -->
<line x1="354" y1="360" x2="274" y2="428" stroke="#f0e6d3" stroke-width="0.75" opacity="0.12" stroke-dasharray="4,3" marker-end="url(#arrowW)"/>
<!-- CS Portal → Phone (crossing) -->
<line x1="164" y1="198" x2="192" y2="318" stroke="#f0e6d3" stroke-width="0.75" opacity="0.08" stroke-dasharray="4,3"/>

<!-- Node 1: CS Portal -->
<rect x="78" y="142" width="172" height="68" rx="6" fill="#1a1714" stroke="#2a2724" stroke-width="1.5"/>
<rect x="78" y="142" width="5" height="68" rx="3" fill="#e8734a" opacity="0.4"/>
<text x="104" y="169" font-family="Courier New,monospace" font-size="9" fill="#f0e6d3" opacity="0.55" letter-spacing="1">01</text>
<text x="104" y="185" font-family="Arial,sans-serif" font-size="11" fill="#f0e6d3" opacity="0.6">CS Support Portal</text>
<text x="104" y="200" font-family="Courier New,monospace" font-size="7.5" fill="#f0e6d3" opacity="0.25">manual ticket</text>

<!-- Node 2: Email -->
<rect x="246" y="126" width="152" height="68" rx="6" fill="#1a1714" stroke="#2a2724" stroke-width="1.5"/>
<rect x="246" y="126" width="5" height="68" rx="3" fill="#e8734a" opacity="0.4"/>
<text x="270" y="153" font-family="Courier New,monospace" font-size="9" fill="#f0e6d3" opacity="0.55" letter-spacing="1">02</text>
<text x="270" y="169" font-family="Arial,sans-serif" font-size="11" fill="#f0e6d3" opacity="0.6">Email Inquiry</text>
<text x="270" y="184" font-family="Courier New,monospace" font-size="7.5" fill="#f0e6d3" opacity="0.25">async · delayed</text>

<!-- Node 3: Phone -->
<rect x="106" y="310" width="148" height="68" rx="6" fill="#1a1714" stroke="#2a2724" stroke-width="1.5"/>
<rect x="106" y="310" width="5" height="68" rx="3" fill="#e8734a" opacity="0.4"/>
<text x="130" y="337" font-family="Courier New,monospace" font-size="9" fill="#f0e6d3" opacity="0.55" letter-spacing="1">03</text>
<text x="130" y="353" font-family="Arial,sans-serif" font-size="11" fill="#f0e6d3" opacity="0.6">Phone Call</text>
<text x="130" y="368" font-family="Courier New,monospace" font-size="7.5" fill="#f0e6d3" opacity="0.25">queue · wait time</text>

<!-- Node 4: Warehouse -->
<rect x="270" y="298" width="164" height="68" rx="6" fill="#1a1714" stroke="#2a2724" stroke-width="1.5"/>
<rect x="270" y="298" width="5" height="68" rx="3" fill="#e8734a" opacity="0.4"/>
<text x="294" y="325" font-family="Courier New,monospace" font-size="9" fill="#f0e6d3" opacity="0.55" letter-spacing="1">04</text>
<text x="294" y="341" font-family="Arial,sans-serif" font-size="11" fill="#f0e6d3" opacity="0.6">Warehouse System</text>
<text x="294" y="356" font-family="Courier New,monospace" font-size="7.5" fill="#f0e6d3" opacity="0.25">physical form</text>

<!-- Node 5: Finance -->
<rect x="172" y="418" width="160" height="68" rx="6" fill="#1a1714" stroke="#2a2724" stroke-width="1.5"/>
<rect x="172" y="418" width="5" height="68" rx="3" fill="#e8734a" opacity="0.4"/>
<text x="196" y="445" font-family="Courier New,monospace" font-size="9" fill="#f0e6d3" opacity="0.55" letter-spacing="1">05</text>
<text x="196" y="461" font-family="Arial,sans-serif" font-size="11" fill="#f0e6d3" opacity="0.6">Finance Sign-off</text>
<text x="196" y="476" font-family="Courier New,monospace" font-size="7.5" fill="#f0e6d3" opacity="0.25">separate approval</text>

<!-- 34% abandonment label -->
<text x="80" y="520" font-family="Courier New,monospace" font-size="9" fill="#e8734a" opacity="0.45">34% abandonment rate</text>
<text x="80" y="536" font-family="Courier New,monospace" font-size="9" fill="#f0e6d3" opacity="0.22">40% of CS bandwidth consumed</text>

<!-- ── CENTER TRANSFORM ARROW ── -->
<line x1="510" y1="338" x2="618" y2="338" stroke="#e8734a" stroke-width="1.5" opacity="0.5"/>
<polygon points="614,332 626,338 614,344" fill="#e8734a" opacity="0.5"/>
<text x="566" y="322" font-family="Courier New,monospace" font-size="7.5" fill="#e8734a" opacity="0.6" text-anchor="middle" letter-spacing="1">REDESIGN</text>
<text x="566" y="360" font-family="Courier New,monospace" font-size="7" fill="#f0e6d3" opacity="0.2" text-anchor="middle">research-driven</text>

<!-- ── SECTION LABEL: AFTER ── -->
<text x="648" y="68" font-family="Courier New,monospace" font-size="10" fill="#e8734a" opacity="0.55" letter-spacing="4">AFTER</text>
<line x1="648" y1="74" x2="1140" y2="74" stroke="#e8734a" stroke-width="0.5" opacity="0.2"/>

<!-- ── STREAMLINED FLOW (After) ── -->

<!-- Step 1 → Step 2 connector -->
<line x1="958" y1="310" x2="958" y2="368" stroke="#e8734a" stroke-width="1.5" opacity="0.5"/>
<polygon points="952,365 958,378 964,365" fill="#e8734a" opacity="0.5"/>
<!-- Step 2 → Done connector -->
<line x1="958" y1="452" x2="958" y2="498" stroke="#e8734a" stroke-width="1.5" opacity="0.5"/>
<polygon points="952,495 958,508 964,495" fill="#e8734a" opacity="0.5"/>

<!-- After Node 1: Self-service Portal -->
<rect x="702" y="220" width="512" height="92" rx="8" fill="#1e1a14" stroke="#e8734a" stroke-width="1" opacity="0.75"/>
<rect x="702" y="220" width="6" height="92" rx="4" fill="#e8734a" opacity="0.85"/>
<!-- Icon area -->
<rect x="726" y="242" width="52" height="48" rx="4" fill="#e8734a" opacity="0.1"/>
<rect x="726" y="242" width="52" height="48" rx="4" fill="none" stroke="#e8734a" stroke-width="1" opacity="0.4"/>
<text x="752" y="272" font-family="Arial,sans-serif" font-size="18" fill="#e8734a" opacity="0.7" text-anchor="middle">↩</text>
<!-- Content -->
<text x="798" y="248" font-family="Courier New,monospace" font-size="8.5" fill="#e8734a" opacity="0.7" letter-spacing="1">STEP 01</text>
<text x="798" y="266" font-family="Arial,sans-serif" font-size="14" font-weight="bold" fill="#f0e6d3" opacity="0.85">Self-Service Return Portal</text>
<text x="798" y="284" font-family="Arial,sans-serif" font-size="10" fill="#f0e6d3" opacity="0.4">Select item · Choose reason · Confirm</text>
<!-- Status chips -->
<rect x="798" y="294" width="68" height="14" rx="7" fill="#e8734a" opacity="0.12"/>
<rect x="798" y="294" width="68" height="14" rx="7" fill="none" stroke="#e8734a" stroke-width="0.8" opacity="0.4"/>
<text x="832" y="305" font-family="Courier New,monospace" font-size="6.5" fill="#e8734a" opacity="0.7" text-anchor="middle">real-time</text>
<rect x="874" y="294" width="80" height="14" rx="7" fill="none" stroke="#f0e6d3" stroke-width="0.5" opacity="0.2"/>
<text x="914" y="305" font-family="Courier New,monospace" font-size="6.5" fill="#f0e6d3" opacity="0.3" text-anchor="middle">automated refund</text>

<!-- After Node 2: Processing -->
<rect x="702" y="370" width="512" height="80" rx="8" fill="#1e1a14" stroke="#2a2724" stroke-width="1"/>
<rect x="702" y="370" width="6" height="80" rx="4" fill="#e8734a" opacity="0.4"/>
<rect x="726" y="390" width="52" height="40" rx="4" fill="#e8734a" opacity="0.06"/>
<text x="752" y="415" font-family="Arial,sans-serif" font-size="16" fill="#f0e6d3" opacity="0.5" text-anchor="middle">⚡</text>
<text x="798" y="396" font-family="Courier New,monospace" font-size="8.5" fill="#f0e6d3" opacity="0.4" letter-spacing="1">STEP 02</text>
<text x="798" y="414" font-family="Arial,sans-serif" font-size="14" fill="#f0e6d3" opacity="0.7">Auto-Processing &amp; Refund</text>
<text x="798" y="432" font-family="Arial,sans-serif" font-size="10" fill="#f0e6d3" opacity="0.3">Warehouse notified · Refund initiated</text>
<rect x="798" y="442" width="80" height="0" fill="none"/><!-- spacer -->

<!-- Done indicator -->
<rect x="790" y="505" width="340" height="60" rx="8" fill="#e8734a" opacity="0.08"/>
<rect x="790" y="505" width="340" height="60" rx="8" fill="none" stroke="#e8734a" stroke-width="1" opacity="0.35"/>
<text x="960" y="530" font-family="Arial,sans-serif" font-size="13" fill="#e8734a" opacity="0.8" text-anchor="middle">✓  Return Complete</text>
<text x="960" y="550" font-family="Courier New,monospace" font-size="8" fill="#f0e6d3" opacity="0.3" text-anchor="middle">Customer notified · Refund processed</text>

<!-- After stats labels -->
<text x="702" y="594" font-family="Courier New,monospace" font-size="8.5" fill="#e8734a" opacity="0.5">-34% abandonment</text>
<text x="826" y="594" font-family="Courier New,monospace" font-size="8.5" fill="#e8734a" opacity="0.5">·  -40% CS tickets</text>
<text x="1000" y="594" font-family="Courier New,monospace" font-size="8.5" fill="#e8734a" opacity="0.5">·  &gt;50% faster</text>

<!-- Tagline -->
<text x="600" y="640" font-family="Georgia,'Times New Roman',serif" font-size="17" fill="#f0e6d3" opacity="0.6" text-anchor="middle" font-style="italic">From friction to flow — and 427% ROI.</text>
</svg>
